<svg width="25" height="32" viewBox="0 0 25 32" fill="none" xmlns="http://www.w3.org/2000/svg">
<path d="M4.69613 0H15.4031L24.4664 9.45593V27.8372C24.4664 30.1365 22.6029 32 20.3036 32H4.69613C2.39685 32 0.533302 30.1364 0.533302 27.8372V4.16283C0.533302 1.86359 2.39685 0 4.69613 0V0Z" fill="#0263D1"/>
<path opacity="0.302" fill-rule="evenodd" clip-rule="evenodd" d="M15.39 0V9.37826H24.4663L15.39 0Z" fill="white"/>
<path d="M4.39843 22.8333V17.5359H6.27496C6.65024 17.5359 6.9997 17.5919 7.32323 17.6955C7.64677 17.8033 7.9401 17.9586 8.20327 18.1657C8.46641 18.3728 8.6735 18.6489 8.82447 18.994C8.97544 19.3391 9.05311 19.7359 9.05311 20.1846C9.05311 20.6332 8.97544 21.0301 8.82447 21.3752C8.6735 21.7203 8.46641 21.9964 8.20327 22.2034C7.94014 22.4105 7.64677 22.5658 7.32323 22.6736C6.9997 22.7772 6.65029 22.8333 6.27496 22.8333H4.39843ZM5.72278 21.6815H6.11533C6.32671 21.6815 6.52515 21.6556 6.702 21.6081C6.88317 21.5564 7.04708 21.4744 7.20238 21.3666C7.35768 21.2587 7.47845 21.1034 7.56473 20.9007C7.65534 20.7022 7.69844 20.4606 7.69844 20.1846C7.69844 19.9085 7.6553 19.6669 7.56473 19.4641C7.47845 19.2657 7.35768 19.1104 7.20238 19.0026C7.04708 18.8904 6.88317 18.8128 6.702 18.761C6.52515 18.7135 6.32671 18.6877 6.11533 18.6877H5.72278V21.6815ZM12.2669 22.8937C11.4688 22.8937 10.8088 22.6348 10.2869 22.1215C9.76488 21.6081 9.50603 20.9611 9.50603 20.1846C9.50603 19.4081 9.76488 18.761 10.2869 18.2477C10.8088 17.7343 11.4688 17.4755 12.2669 17.4755C13.052 17.4755 13.7034 17.7344 14.2254 18.2477C14.743 18.7611 15.0019 19.4082 15.0019 20.1846C15.0019 20.9611 14.743 21.6082 14.2254 22.1215C13.7034 22.6348 13.052 22.8937 12.2669 22.8937ZM11.2488 21.3019C11.5119 21.5952 11.8484 21.7419 12.2582 21.7419C12.668 21.7419 13.0002 21.5952 13.2634 21.3019C13.5265 21.0042 13.6559 20.6332 13.6559 20.1846C13.6559 19.7359 13.5265 19.3649 13.2634 19.0673C13.0002 18.7739 12.668 18.6272 12.2582 18.6272C11.8484 18.6272 11.5119 18.7739 11.2488 19.0673C10.9857 19.3649 10.8519 19.7359 10.8519 20.1846C10.8519 20.6332 10.9857 21.0042 11.2488 21.3019ZM18.1509 22.8937C17.3788 22.8937 16.736 22.6521 16.227 22.1776C15.7136 21.6987 15.4591 21.0344 15.4591 20.1846C15.4591 19.3391 15.718 18.6747 16.2356 18.1959C16.7576 17.717 17.3917 17.4755 18.151 17.4755C18.8369 17.4755 19.3977 17.6437 19.842 17.9845C20.282 18.321 20.5365 18.7696 20.6012 19.3304L19.2639 19.6022C19.2079 19.3089 19.0741 19.0716 18.8671 18.8947C18.66 18.7178 18.4184 18.6272 18.1423 18.6272C17.7627 18.6272 17.4478 18.761 17.1933 19.0327C16.9387 19.3088 16.8093 19.6884 16.8093 20.1845C16.8093 20.6806 16.9387 21.0602 17.1889 21.332C17.4435 21.6081 17.7584 21.7418 18.1423 21.7418C18.4184 21.7418 18.6557 21.6642 18.8498 21.5089C19.0439 21.3536 19.1647 21.1466 19.2164 20.8877L20.5839 21.1983C20.4588 21.7332 20.1827 22.1474 19.7514 22.445C19.3243 22.7427 18.7894 22.8937 18.1509 22.8937V22.8937Z" fill="white"/>
</svg>
