<svg width="21" height="20" viewBox="0 0 21 20" fill="none" xmlns="http://www.w3.org/2000/svg">
<path d="M17.0938 9.60156C17.2891 9.40625 17.2891 9.09375 17.0938 8.9375L16.3125 8.15625C16.1562 7.96094 15.8438 7.96094 15.6484 8.15625L11.9766 11.9453V2.21875C11.9766 1.98438 11.7812 1.75 11.5078 1.75H10.4141C10.1797 1.75 9.94531 1.98438 9.94531 2.21875V11.9453L6.3125 8.15625C6.11719 7.96094 5.80469 7.96094 5.64844 8.15625L4.86719 8.9375C4.67188 9.09375 4.67188 9.40625 4.86719 9.60156L10.6484 15.3828C10.8438 15.5781 11.1172 15.5781 11.3125 15.3828L17.0938 9.60156ZM18.0312 17.2188H3.96875C3.69531 17.2188 3.5 17.4531 3.5 17.6875V18.7812C3.5 19.0547 3.69531 19.25 3.96875 19.25H18.0312C18.2656 19.25 18.5 19.0547 18.5 18.7812V17.6875C18.5 17.4531 18.2656 17.2188 18.0312 17.2188Z" fill="#191919"/>
</svg>
