<svg width="21" height="21" viewBox="0 0 21 21" fill="none" xmlns="http://www.w3.org/2000/svg">
<path d="M18.625 3.625H15.3828L14.0547 1.4375C13.7422 0.929688 13.0391 0.5 12.4531 0.5H8.50781C7.92188 0.5 7.21875 0.929688 6.90625 1.4375L5.57812 3.625H2.375C2.02344 3.625 1.75 3.9375 1.75 4.25V4.875C1.75 5.22656 2.02344 5.5 2.375 5.5H3L3.82031 18.7422C3.85938 19.7188 4.71875 20.5 5.69531 20.5H15.2656C16.2422 20.5 17.1016 19.7188 17.1406 18.7422L18 5.5H18.625C18.9375 5.5 19.25 5.22656 19.25 4.875V4.25C19.25 3.9375 18.9375 3.625 18.625 3.625ZM8.50781 2.375H12.4531L13.1953 3.625H7.76562L8.50781 2.375ZM15.2656 18.625H5.69531L4.875 5.5H16.0859L15.2656 18.625Z" fill="#191919"/>
</svg>
