<svg width="33" height="32" viewBox="0 0 33 32" fill="none" xmlns="http://www.w3.org/2000/svg">
<path d="M28.0156 16.1875L18.3672 8.25781C18.0547 7.98438 17.4297 7.78906 17 7.78906C16.5312 7.78906 15.9062 7.98438 15.5938 8.25781L5.94531 16.1875C5.82812 16.3047 5.75 16.5 5.75 16.6562C5.75 16.7734 5.78906 16.9688 5.86719 17.0469L6.29688 17.5547C6.375 17.6719 6.60938 17.75 6.76562 17.75C6.88281 17.75 7.07812 17.7109 7.15625 17.6328L8.25 16.7344V24C8.25 24.7031 8.79688 25.25 9.5 25.25H14.5C15.1641 25.25 15.7109 24.7031 15.75 24V19.9375H18.25V24C18.25 24.7031 18.7969 25.25 19.5 25.25H24.5C25.1641 25.25 25.7109 24.7031 25.75 24.0391V16.7344L26.8047 17.6328C26.8828 17.7109 27.0781 17.7891 27.1953 17.7891C27.3516 17.7891 27.5859 17.6719 27.7031 17.5547L28.0938 17.0469C28.1719 16.9688 28.25 16.7734 28.25 16.6562C28.25 16.5 28.1328 16.3047 28.0156 16.1875ZM23.8359 23.375H20.125V19.3125C20.0859 18.6484 19.5391 18.1016 18.875 18.0625H15.125C14.4219 18.1016 13.875 18.6484 13.875 19.3125V23.375H10.125V15.2109L17 9.54688L23.875 15.2109L23.8359 23.375Z" fill="#007C7C"/>
</svg>
