<svg width="25" height="24" viewBox="0 0 25 24" fill="none" xmlns="http://www.w3.org/2000/svg">
<path d="M19.1406 17.5742L15.832 14.2656C15.75 14.2109 15.668 14.1562 15.5859 14.1562H15.2305C16.0781 13.1719 16.625 11.8594 16.625 10.4375C16.625 7.32031 14.0547 4.75 10.9375 4.75C7.79297 4.75 5.25 7.32031 5.25 10.4375C5.25 13.582 7.79297 16.125 10.9375 16.125C12.3594 16.125 13.6445 15.6055 14.6562 14.7578V15.1133C14.6562 15.1953 14.6836 15.2773 14.7383 15.3594L18.0469 18.668C18.1836 18.8047 18.4023 18.8047 18.5117 18.668L19.1406 18.0391C19.2773 17.9297 19.2773 17.7109 19.1406 17.5742ZM10.9375 14.8125C8.50391 14.8125 6.5625 12.8711 6.5625 10.4375C6.5625 8.03125 8.50391 6.0625 10.9375 6.0625C13.3438 6.0625 15.3125 8.03125 15.3125 10.4375C15.3125 12.8711 13.3438 14.8125 10.9375 14.8125Z" fill="#191919"/>
</svg>
