<svg width="24" height="24" viewBox="0 0 24 24" fill="none" xmlns="http://www.w3.org/2000/svg">
<path d="M4.8125 6.375C4.9375 6.46875 5.125 6.53125 5.25 6.53125C5.65625 6.53125 6 6.1875 6 5.78125C6 5.5625 5.84375 5.25 5.65625 5.15625L4.15625 4.15625C4.03125 4.0625 3.84375 4 3.71875 4C3.3125 4 2.96875 4.34375 2.96875 4.75C2.96875 4.96875 3.125 5.28125 3.3125 5.375L4.8125 6.375ZM18.75 6.5C18.875 6.5 19.0312 6.46875 19.1562 6.375L20.6562 5.375C20.8438 5.28125 21 5 21 4.75C21 4.34375 20.6562 4 20.25 4C20.125 4 19.9375 4.0625 19.8125 4.15625L18.3125 5.15625C18.125 5.25 18 5.53125 18 5.75C18 6.1875 18.3125 6.5 18.75 6.5ZM5.5 10C5.5 9.59375 5.15625 9.25 4.75 9.25H2.75C2.3125 9.25 2 9.59375 2 10C2 10.4375 2.3125 10.75 2.75 10.75H4.75C5.15625 10.75 5.5 10.4375 5.5 10ZM21.25 9.25H19.25C18.8125 9.25 18.5 9.59375 18.5 10C18.5 10.4375 18.8125 10.75 19.25 10.75H21.25C21.6562 10.75 22 10.4375 22 10C22 9.59375 21.6562 9.25 21.25 9.25ZM18 14.5L17.2812 8C17.1562 6.90625 16.1562 6.03125 15.0625 6H8.90625C7.8125 6.03125 6.8125 6.90625 6.6875 8L6 14.5C5.4375 14.5 5 14.9688 5 15.5V18C5 18.5625 5.4375 19 6 19H18C18.5312 19 19 18.5625 19 18V15.5C19 14.9688 18.5312 14.5 18 14.5ZM8.15625 8.15625C8.21875 7.8125 8.53125 7.53125 8.90625 7.5H15.0625C15.4375 7.5 15.75 7.8125 15.8125 8.15625L16.4688 14.5H9.875L10.4688 8.875C10.4688 8.84375 10.5 8.84375 10.5 8.84375C10.5 8.71875 10.375 8.59375 10.2812 8.59375L9.78125 8.53125C9.75 8.53125 9.75 8.5 9.75 8.5C9.625 8.5 9.5 8.625 9.5 8.71875L8.84375 14.5H7.5L8.15625 8.15625ZM17.5 17.5H6.5V16H17.5V17.5Z" fill="#767676"/>
</svg>
