<svg width="20" height="21" viewBox="0 0 20 21" fill="none" xmlns="http://www.w3.org/2000/svg">
<path d="M18.3984 14.6797C17.6562 13.8594 16.2109 12.6484 16.2109 8.625C16.2109 5.61719 14.1016 3.19531 11.2109 2.57031V1.75C11.2109 1.08594 10.6641 0.5 10 0.5C9.29688 0.5 8.75 1.08594 8.75 1.75V2.57031C5.85938 3.19531 3.75 5.61719 3.75 8.625C3.75 12.6484 2.30469 13.8594 1.5625 14.6797C1.32812 14.9141 1.21094 15.2266 1.25 15.5C1.25 16.1641 1.71875 16.75 2.5 16.75H17.4609C18.2422 16.75 18.7109 16.1641 18.75 15.5C18.75 15.2266 18.6328 14.9141 18.3984 14.6797ZM3.86719 14.875C4.6875 13.8203 5.58594 11.9844 5.625 8.66406C5.625 8.66406 5.625 8.66406 5.625 8.625C5.625 6.24219 7.57812 4.25 10 4.25C12.3828 4.25 14.375 6.24219 14.375 8.625C14.375 8.66406 14.3359 8.66406 14.3359 8.66406C14.375 11.9844 15.2734 13.8203 16.0938 14.875H3.86719ZM10 20.5C11.3672 20.5 12.4609 19.4062 12.4609 18H7.5C7.5 19.4062 8.59375 20.5 10 20.5Z" fill="#191919"/>
<circle cx="16" cy="4" r="4" fill="#E72511"/>
</svg>
