<svg width="25" height="32" viewBox="0 0 25 32" fill="none" xmlns="http://www.w3.org/2000/svg">
<path fill-rule="evenodd" clip-rule="evenodd" d="M4.69999 7.62939e-06H15.3986L24.4661 9.45129V27.8341C24.4661 30.1369 22.603 32 20.3082 32H4.69999C2.39715 32 0.534088 30.1369 0.534088 27.8341V4.16591C0.534048 1.86307 2.39711 7.62939e-06 4.69999 7.62939e-06V7.62939e-06Z" fill="#E5252A"/>
<path opacity="0.302" fill-rule="evenodd" clip-rule="evenodd" d="M15.3907 7.62939e-06V9.37932H24.4661L15.3907 7.62939e-06Z" fill="white"/>
<path d="M5.1637 23.8761V18.031H7.65047C8.26617 18.031 8.75394 18.1989 9.12175 18.5428C9.48956 18.8786 9.67348 19.3344 9.67348 19.9021C9.67348 20.4698 9.48956 20.9256 9.12175 21.2614C8.75394 21.6053 8.26617 21.7732 7.65047 21.7732H6.65896V23.8761H5.1637ZM6.65896 20.5018H7.48256C7.70643 20.5018 7.88235 20.4538 8.00231 20.3419C8.12223 20.238 8.18623 20.094 8.18623 19.9021C8.18623 19.7103 8.12227 19.5663 8.00231 19.4624C7.88239 19.3504 7.70647 19.3025 7.48256 19.3025H6.65896V20.5018ZM10.2891 23.8761V18.031H12.3601C12.7679 18.031 13.1517 18.087 13.5115 18.207C13.8713 18.3269 14.1992 18.4948 14.487 18.7267C14.7749 18.9506 15.0068 19.2544 15.1747 19.6382C15.3346 20.0221 15.4226 20.4618 15.4226 20.9576C15.4226 21.4453 15.3346 21.8851 15.1747 22.2689C15.0068 22.6527 14.7749 22.9566 14.487 23.1804C14.1992 23.4123 13.8713 23.5802 13.5115 23.7002C13.1517 23.8201 12.7679 23.8761 12.3601 23.8761H10.2891ZM11.7524 22.6048H12.1842C12.4161 22.6048 12.632 22.5808 12.8319 22.5248C13.0238 22.4688 13.2077 22.3809 13.3836 22.2609C13.5515 22.141 13.6874 21.9731 13.7834 21.7492C13.8793 21.5253 13.9273 21.2614 13.9273 20.9576C13.9273 20.6457 13.8793 20.3819 13.7834 20.158C13.6874 19.9341 13.5515 19.7662 13.3836 19.6462C13.2077 19.5263 13.0238 19.4383 12.8319 19.3824C12.632 19.3264 12.4161 19.3024 12.1842 19.3024H11.7524V22.6048ZM16.1742 23.8761V18.031H20.3321V19.3024H17.6695V20.2379H19.7964V21.5013H17.6695V23.8761H16.1742Z" fill="white"/>
</svg>
