<svg width="33" height="32" viewBox="0 0 33 32" fill="none" xmlns="http://www.w3.org/2000/svg">
<path d="M23.6875 6.77344L7.4375 16.1484C6.07031 16.9297 6.1875 18.9219 7.63281 19.5078L12.125 21.3438V24.625C12.125 26.4609 14.4297 27.2031 15.4844 25.7578L17.2031 23.4531L21.5781 25.25C21.8125 25.3672 22.0469 25.4062 22.2812 25.4062C22.5938 25.4062 22.9062 25.3281 23.2188 25.1719C23.7266 24.8594 24.0391 24.3906 24.1562 23.8047L26.4609 8.6875C26.6953 7.125 25.0156 5.99219 23.6875 6.77344ZM14 24.625V22.125L15.4062 22.7109L14 24.625ZM22.2812 23.5312L16.2656 21.0312L21.7734 13.1406C22.1641 12.5156 21.3828 11.8125 20.8359 12.3203L12.5547 19.5078L8.375 17.75L24.625 8.375L22.2812 23.5312Z" fill="#767676"/>
</svg>
