<svg width="25" height="32" viewBox="0 0 25 32" fill="none" xmlns="http://www.w3.org/2000/svg">
<path fill-rule="evenodd" clip-rule="evenodd" d="M4.69999 0H15.3986L24.4661 9.45128V27.8341C24.4661 30.1369 22.603 32 20.3082 32H4.69999C2.39715 32 0.534088 30.1369 0.534088 27.8341V4.1659C0.534048 1.86306 2.39711 0 4.69999 0V0Z" fill="#E03303"/>
<path opacity="0.302" fill-rule="evenodd" clip-rule="evenodd" d="M15.3906 0V9.37931H24.466L15.3906 0Z" fill="white"/>
<path d="M5.56348 22.8927V17.0796H8.03424C8.64193 17.0796 9.1297 17.2475 9.49751 17.5913C9.85731 17.9272 10.0412 18.3749 10.0412 18.9427C10.0412 19.5024 9.85731 19.9581 9.49751 20.294C9.1297 20.6298 8.64193 20.7977 8.03424 20.7977H7.04273V22.8927H5.56348ZM7.04277 19.5344H7.86636C8.09023 19.5344 8.25815 19.4864 8.38611 19.3824C8.50604 19.2785 8.56203 19.1266 8.56203 18.9427C8.56203 18.7508 8.50608 18.6068 8.38611 18.5029C8.25819 18.3989 8.09027 18.343 7.86636 18.343H7.04277V19.5344ZM10.6649 22.8927V17.0796H13.1357C13.7434 17.0796 14.2312 17.2475 14.599 17.5913C14.9668 17.9272 15.1427 18.3749 15.1427 18.9427C15.1427 19.5024 14.9668 19.9581 14.599 20.294C14.2312 20.6298 13.7434 20.7977 13.1357 20.7977H12.1522V22.8927H10.6649ZM12.1522 19.5344H12.9678C13.1916 19.5344 13.3676 19.4864 13.4875 19.3824C13.6074 19.2785 13.6715 19.1266 13.6715 18.9427C13.6715 18.7508 13.6075 18.6068 13.4875 18.5029C13.3676 18.3989 13.1917 18.343 12.9678 18.343H12.1522V19.5344ZM17.2776 22.8927V18.343H15.6225V17.0796H20.4281V18.343H18.7649V22.8927H17.2776Z" fill="white"/>
</svg>
