<svg width="25" height="32" viewBox="0 0 25 32" fill="none" xmlns="http://www.w3.org/2000/svg">
<path fill-rule="evenodd" clip-rule="evenodd" d="M4.69276 0H15.4022L24.465 9.45985V27.8307C24.465 30.1314 22.6081 32 20.3074 32H4.69276C2.40371 32 0.53511 30.1314 0.53511 27.8307V4.15765C0.53507 1.8686 2.40371 0 4.69276 0V0Z" fill="#00733B"/>
<path opacity="0.302" fill-rule="evenodd" clip-rule="evenodd" d="M15.3906 0V9.3781H24.465L15.3906 0Z" fill="white"/>
<path d="M10.4855 23.2991H8.93223L7.86947 21.5123L6.80668 23.2991H5.24172L7.08699 20.1925L5.46365 17.4947H7.02857L7.86943 18.8961L8.69861 17.4947H10.2636L8.65187 20.2042L10.4855 23.2991ZM11.0344 23.2991V17.4947H12.5176V22.0377H15.0402V23.2991H11.0344V23.2991ZM17.4928 23.3692C16.9088 23.3692 16.395 23.1823 15.9512 22.8203C15.5191 22.4699 15.2738 22.0261 15.2388 21.5006L16.5118 21.1269C16.5468 21.4071 16.6636 21.6524 16.8622 21.8393C17.0724 22.0261 17.306 22.1195 17.5629 22.1195C17.7731 22.1195 17.9483 22.0728 18.0884 21.9794C18.2169 21.886 18.287 21.7575 18.287 21.6057C18.287 21.4772 18.2286 21.3721 18.1235 21.2787C18.0183 21.1969 17.8782 21.1269 17.7147 21.0685C17.5512 21.0101 17.3527 20.9517 17.1541 20.905C16.9439 20.8466 16.7336 20.7765 16.5351 20.6831C16.3249 20.6013 16.138 20.4962 15.9745 20.3677C15.7993 20.2509 15.6709 20.0758 15.5658 19.8539C15.4606 19.6437 15.4023 19.3867 15.4023 19.0947C15.4023 18.6159 15.6008 18.2188 16.0095 17.9035C16.4183 17.5765 16.9088 17.4247 17.4811 17.4247C18.0533 17.4247 18.5555 17.5648 18.976 17.8334C19.3964 18.1137 19.665 18.4758 19.7701 18.9196L18.4387 19.4801C18.3804 19.2349 18.2635 19.0364 18.1 18.8845C17.9365 18.7444 17.7263 18.6627 17.4811 18.6627C17.2942 18.6627 17.1541 18.7094 17.0373 18.7795C16.9322 18.8495 16.8855 18.9547 16.8855 19.0831C16.8855 19.1999 16.9555 19.305 17.0957 19.3867C17.2358 19.4568 17.4227 19.5152 17.6329 19.5503C17.8431 19.5853 18.0767 19.6437 18.3219 19.7254C18.5789 19.8189 18.8008 19.9123 19.0227 20.0408C19.2329 20.1576 19.4081 20.3561 19.5482 20.613C19.7 20.8817 19.7701 21.197 19.7701 21.559C19.7701 22.0963 19.5599 22.5401 19.1394 22.867C18.719 23.194 18.1702 23.3692 17.4928 23.3692V23.3692Z" fill="white"/>
</svg>
